<svg width="98" height="99" viewBox="0 0 98 99" fill="none" xmlns="http://www.w3.org/2000/svg">
<path d="M21.3258 89.9925L15.1678 20.22H82.8323L76.6682 89.9817L48.9587 97.7416L21.3258 89.9925Z" fill="#E44D26"/>
<path d="M49 91.8102L71.3899 85.5391L76.6582 25.9257H49V91.8102Z" fill="#F16529"/>
<path d="M49 51.8033H37.7905L37.0172 43.0395H49V34.4822H27.7593L27.9614 36.7785L30.0439 60.3598H49V51.8033ZM49 74.0265L48.9625 74.0365L39.5292 71.4625L38.9259 64.6385H30.4221L31.6088 78.0747L48.961 82.9411L49 82.9295V74.0265Z" fill="#EBEBEB"/>
<path d="M21.4635 1.25842H25.7678V5.55564H29.7062V1.25842H34.0113V14.2692H29.7062V9.91241H25.7686V14.2692H21.4635V1.25842ZM39.6716 5.57343H35.8818V1.25842H47.7681V5.57343H43.9767V14.2692H39.6716V5.57343ZM49.6546 1.25842H54.1427L56.9043 5.83021L59.6628 1.25842H64.1532V14.2692H59.865V7.82027L56.9043 12.4462H56.8293L53.8663 7.82027V14.2692H49.6538V1.25842H49.6546ZM66.2962 1.25842H70.6021V9.96887H76.6559V14.27H66.2962V1.25842Z" fill="black"/>
<path d="M48.9709 51.8033V60.3598H59.4018L58.4188 71.4579L48.9709 74.0342V82.9365L66.3368 78.0747L66.4639 76.6283L68.4546 54.1004L68.6613 51.8033H66.3782H48.9709ZM48.9709 34.4822V43.0395H69.4323L69.6015 41.116L69.9881 36.7785L70.191 34.4822H48.9709Z" fill="white"/>
</svg>
