<svg width="97" height="106" viewBox="0 0 97 106" fill="none" xmlns="http://www.w3.org/2000/svg">
<path d="M48.5 44.0438C52.3924 44.0438 55.5477 40.8885 55.5477 36.9961C55.5477 33.1038 52.3924 29.9485 48.5 29.9485C44.6077 29.9485 41.4524 33.1038 41.4524 36.9961C41.4524 40.8885 44.6077 44.0438 48.5 44.0438Z" fill="#61DAFB"/>
<path d="M48.5 62.9133C54.0321 68.2938 59.4883 71.4766 63.8836 71.4766C65.3235 71.4766 66.6875 71.1735 67.8242 70.4914C71.7649 68.218 73.2047 62.5344 71.8406 54.4258C71.6133 52.986 71.3102 51.5461 70.9313 50.0305C72.4469 49.5758 73.811 49.1211 75.175 48.6664C82.8289 45.711 87.0727 41.6188 87.0727 37.1477C87.0727 32.6008 82.8289 28.5086 75.175 25.6289C73.811 25.0985 72.4469 24.6438 70.9313 24.2649C71.3102 22.7492 71.6133 21.3094 71.8406 19.8696C73.1289 11.6094 71.6891 5.85002 67.7485 3.57659C66.6117 2.89456 65.2477 2.59143 63.8078 2.59143C59.4883 2.59143 53.9563 5.77424 48.4242 11.1547C42.968 5.77424 37.5117 2.59143 33.1164 2.59143C31.6766 2.59143 30.3125 2.89456 29.1758 3.57659C25.2352 5.85002 23.7953 11.5336 25.1594 19.6422C25.3867 21.0821 25.6899 22.5219 26.0688 24.0375C24.5531 24.4922 23.1891 24.9469 21.825 25.4016C14.1711 28.3571 9.92737 32.4492 9.92737 36.9203C9.92737 41.4672 14.1711 45.5594 21.825 48.4391C23.1891 48.9696 24.5531 49.4242 26.0688 49.8032C25.6899 51.3188 25.3867 52.7586 25.1594 54.1985C23.8711 62.3071 25.311 68.0664 29.1758 70.2641C30.3125 70.9461 31.6766 71.2492 33.1164 71.2492C37.5117 71.4008 42.968 68.218 48.5 62.9133ZM44.2563 52.6828C45.6203 52.7586 47.0602 52.7586 48.5 52.7586C49.9399 52.7586 51.3797 52.7586 52.7438 52.6828C51.3797 54.5016 49.9399 56.1688 48.5 57.7602C47.0602 56.1688 45.6203 54.5016 44.2563 52.6828ZM34.8594 44.8774C35.6172 46.1657 36.2992 47.3782 37.1328 48.5906C34.7836 48.2875 32.586 47.9086 30.4641 47.4539C31.1461 45.4078 31.9039 43.286 32.8133 41.1641C33.4196 42.3766 34.1016 43.6649 34.8594 44.8774ZM30.4641 26.6141C32.586 26.1594 34.7836 25.7805 37.1328 25.4774C36.375 26.6899 35.6172 27.9024 34.8594 29.1907C34.1016 30.4789 33.4196 31.6914 32.8133 32.9797C31.8281 30.7821 31.0703 28.6602 30.4641 26.6141ZM34.6321 36.9961C35.6172 34.95 36.6781 32.9039 37.8906 30.8578C39.0274 28.8875 40.3156 26.9172 41.6039 24.9469C43.8774 24.7953 46.1508 24.7196 48.5 24.7196C50.925 24.7196 53.1985 24.7953 55.3961 24.9469C56.7602 26.9172 57.9727 28.8875 59.1094 30.8578C60.3219 32.9039 61.3828 34.95 62.368 36.9961C61.3828 39.0422 60.3219 41.0883 59.1094 43.1344C57.9727 45.1047 56.6844 47.075 55.3961 49.0453C53.1227 49.1969 50.8492 49.2727 48.5 49.2727C46.075 49.2727 43.8016 49.1969 41.6039 49.0453C40.2399 47.075 39.0274 45.1047 37.8906 43.1344C36.6781 41.0883 35.6172 39.0422 34.6321 36.9961ZM64.2625 32.9039L62.2164 29.1149C61.4586 27.8266 60.7766 26.6141 59.943 25.4016C62.2922 25.7047 64.4899 26.0836 66.6117 26.5383C65.9297 28.6602 65.1719 30.7821 64.2625 32.9039ZM64.2625 41.0883C65.1719 43.2102 65.9297 45.3321 66.6117 47.3782C64.4899 47.8328 62.2922 48.2117 59.943 48.5149C60.7008 47.3024 61.4586 46.0899 62.2164 44.8016C62.8985 43.6649 63.5805 42.3766 64.2625 41.0883ZM66.0055 67.3844C65.3992 67.7633 64.6414 67.9149 63.8078 67.9149C60.0946 67.9149 55.4719 64.8836 50.925 60.3367C53.1227 57.9875 55.2446 55.3352 57.3664 52.3797C60.9281 52.0766 64.3383 51.5461 67.5211 50.7883C67.9 52.1524 68.1274 53.5164 68.3547 54.8805C69.4156 61.3219 68.5821 65.9446 66.0055 67.3844ZM69.9461 27.4477C78.4336 29.8727 83.511 33.586 83.511 36.9961C83.511 39.9516 80.025 42.9071 73.8867 45.2563C72.6742 45.711 71.3102 46.1656 69.9461 46.5446C68.961 43.4375 67.7485 40.2547 66.2328 36.9961C67.7485 33.7375 69.0367 30.5547 69.9461 27.4477ZM63.8836 6.07737C64.7172 6.07737 65.3992 6.22893 66.0813 6.60784C68.5821 8.04768 69.4914 12.5946 68.4305 19.1117C68.2031 20.4 67.9 21.7641 67.5969 23.2039C64.4141 22.5219 61.0039 21.9914 57.4422 21.6125C55.3961 18.6571 53.1985 16.0047 51.0008 13.6555C55.5477 9.1844 60.1703 6.07737 63.8836 6.07737ZM52.7438 21.3094C51.3797 21.2336 49.9399 21.2336 48.5 21.2336C47.0602 21.2336 45.6203 21.2336 44.2563 21.3094C45.6203 19.4906 47.0602 17.8235 48.5 16.2321C49.9399 17.8235 51.3797 19.5664 52.7438 21.3094ZM30.9946 6.60784C31.6008 6.22893 32.3586 6.07737 33.1922 6.07737C36.9055 6.07737 41.5281 9.10862 46.075 13.6555C43.8774 16.0047 41.7555 18.6571 39.6336 21.6125C36.0719 21.9156 32.6617 22.4461 29.4789 23.2039C29.1 21.8399 28.8727 20.4758 28.6453 19.1117C27.5844 12.6703 28.418 8.12346 30.9946 6.60784ZM27.0539 46.5446C18.5664 44.1196 13.4891 40.4063 13.4891 36.9961C13.4891 34.0407 16.975 31.0852 23.1133 28.736C24.3258 28.2813 25.6899 27.8266 27.0539 27.4477C28.0391 30.5547 29.2516 33.7375 30.7672 36.9961C29.2516 40.2547 27.9633 43.5133 27.0539 46.5446ZM28.6453 54.8805C28.8727 53.5922 29.1758 52.2281 29.4789 50.7883C32.6617 51.4703 36.0719 52.0008 39.6336 52.3797C41.6797 55.3352 43.8774 57.9875 46.075 60.3367C41.5281 64.8078 36.9055 67.9149 33.1922 67.9149C32.3586 67.9149 31.6766 67.7633 30.9946 67.3844C28.418 65.9446 27.5844 61.3219 28.6453 54.8805ZM25.4625 86.1024C27.1297 84.0563 27.2055 81.7828 26.2961 79.5094C25.3867 77.236 23.4922 76.175 21.143 76.0992C18.3391 76.0235 15.4594 76.0992 12.6555 76.0992H12.125V95.7266H14.3985V88.3H17.9602C18.4149 88.3 18.7938 88.4516 19.0211 88.8305L23.568 95.8782C23.6438 96.0297 23.8711 96.2571 24.0227 96.2571H26.9781C25.1594 93.4531 23.4164 90.8008 21.5977 88.0727C23.1891 87.8453 24.5531 87.3149 25.4625 86.1024ZM14.3985 85.9508V78.4485H15.2321C16.975 78.4485 18.7938 78.3727 20.5367 78.5242C22.5828 78.6 24.0227 80.1914 24.0227 82.2375C24.0227 84.2836 22.3555 85.875 20.3094 85.9508C18.4906 86.0266 16.6719 85.9508 14.3985 85.9508ZM43.7258 86.936C42.5133 81.6313 37.6633 80.2672 33.95 81.9344C31.0703 83.2227 29.7821 85.7235 29.7063 88.8305C29.6305 91.1797 30.3125 93.3016 32.1313 94.893C34.1774 96.7117 36.6781 96.9391 39.2547 96.4844C40.6946 96.1813 41.9828 95.4992 42.968 94.4383C42.5891 93.9078 42.2102 93.3774 41.8313 92.9227C39.7094 94.7414 37.3602 95.3477 34.7836 94.1352C33.1164 93.3016 32.2828 91.2555 32.1313 89.7399H43.8774V88.7547C43.9531 88.0727 43.8774 87.4664 43.7258 86.936ZM32.2828 88.1485C32.0555 85.875 34.3289 83.45 36.8297 83.45C39.7094 83.3742 41.5281 85.1172 41.6039 88.1485H32.2828ZM55.5477 81.5555C54.411 81.3282 53.1985 81.2524 52.0617 81.3281C50.243 81.4797 48.6516 82.3133 47.3633 83.6774C47.7422 84.2078 48.0453 84.7383 48.5 85.3446C48.6516 85.193 48.8031 85.0414 48.9547 84.9657C50.1672 83.8289 51.6071 83.2227 53.35 83.3742C54.7141 83.45 56.0024 83.9047 56.3813 85.2688C56.6844 86.3297 56.6086 87.4664 56.6844 88.6031C56.4571 88.6031 56.3813 88.5274 56.3055 88.4516C54.4867 86.936 52.4407 86.6328 50.243 87.1633C48.1969 87.6938 46.9086 89.2852 46.7571 91.3313C46.6055 93.6805 47.6664 95.4235 49.7125 96.2571C51.0008 96.7875 52.4406 96.7875 53.8047 96.4844C54.8656 96.2571 55.3203 95.6508 56.836 94.8172V95.8024H58.9578C58.9578 92.7711 59.0336 89.0578 58.9578 85.5719C58.9578 83.3742 57.6696 82.0102 55.5477 81.5555ZM56.6086 91.1039C56.5328 91.3313 56.6086 91.5586 56.6086 91.786C56.6086 93.3774 56.2297 93.9078 54.7141 94.5141C53.6531 94.893 52.5164 95.0446 51.3797 94.6656C50.0914 94.2867 49.1821 93.15 49.1821 91.8617C49.1063 90.5735 49.9399 89.2852 51.2281 88.9063C52.9711 88.3 54.5625 88.6789 56.0024 89.7399C56.4571 90.1188 56.7602 90.4977 56.6086 91.1039ZM68.4305 83.6016C70.4008 82.9953 72.2196 83.3742 73.5836 85.0414L73.811 85.193C74.3414 84.7383 74.7961 84.2836 75.4024 83.7532C75.175 83.5258 75.0992 83.3742 74.9477 83.1469C72.75 80.7977 68.4305 80.4946 65.7781 82.3891C62.0649 85.1172 62.1406 90.4219 63.9594 93.2258C65.7024 95.8782 68.2031 96.7875 71.1586 96.4086C72.9016 96.1813 74.3414 95.3477 75.4781 93.9078C74.9477 93.4531 74.4172 92.9985 73.8867 92.468C73.7352 92.6196 73.6594 92.6953 73.5836 92.8469C71.5375 95.1203 68.1274 94.893 66.3086 92.468C65.2477 91.0281 65.0203 89.361 65.3235 87.6938C65.475 85.7992 66.4602 84.2836 68.4305 83.6016ZM84.193 93.9078C84.0414 93.9836 83.9656 94.0594 83.9656 94.0594C83.3594 94.5141 82.7532 94.5899 82.0711 94.3625C81.3891 94.0594 81.3133 93.4531 81.2375 92.8469V84.2078C81.2375 84.0563 81.2375 84.3594 81.3133 83.6016H84.193V81.3281H81.1617V77.5391H78.8883V81.6313H76.918C76.7664 81.6313 76.5391 81.7828 76.5391 81.9344C76.4633 82.4649 76.5391 82.8438 76.5391 83.6016H78.9641V93.3016C78.9641 94.5141 79.2672 95.575 80.3281 96.1813C81.4649 96.8633 83.6625 96.7117 84.6477 95.8782C84.7992 95.8024 84.875 95.4992 84.875 95.4235C84.6477 94.9688 84.4203 94.4383 84.193 93.9078Z" fill="#61DAFB"/>
</svg>
