<svg width="36" height="25" viewBox="0 0 36 25" fill="none" xmlns="http://www.w3.org/2000/svg">
<path d="M9.9135 3.0195C12.1623 1.0803 15.0305 0.00931166 18 0C24.0525 0 29.0768 4.5 29.6235 10.3027C33.2055 10.809 36 13.8082 36 17.4893C36 21.5302 32.6295 24.75 28.5457 24.75H8.50725C3.843 24.75 0 21.0735 0 16.4655C0 12.4987 2.8485 9.21375 6.6195 8.38125C6.94125 6.4395 8.19 4.5045 9.9135 3.0195ZM11.3827 4.72275C9.6795 6.192 8.7885 7.96275 8.7885 9.34875V10.3568L7.78725 10.467C4.644 10.8112 2.25 13.392 2.25 16.4655C2.25 19.7663 5.0175 22.5 8.50725 22.5H28.5457C31.455 22.5 33.75 20.223 33.75 17.4893C33.75 14.7532 31.455 12.4762 28.5457 12.4762H27.4207V11.3512C27.423 6.35625 23.238 2.25 18 2.25C15.5697 2.25971 13.2229 3.13748 11.3827 4.725V4.72275Z" fill="black"/>
</svg>
