<?xml version="1.0" standalone="no"?>
<!DOCTYPE svg PUBLIC "-//W3C//DTD SVG 20010904//EN"
 "http://www.w3.org/TR/2001/REC-SVG-20010904/DTD/svg10.dtd">
<svg version="1.0" xmlns="http://www.w3.org/2000/svg"
 width="512.000000pt" height="512.000000pt" viewBox="0 0 512.000000 512.000000"
 preserveAspectRatio="xMidYMid meet">
<metadata>
Created by potrace 1.14, written by Peter Selinger 2001-2017
</metadata>
<g transform="translate(0.000000,512.000000) scale(0.100000,-0.100000)"
fill="#000000" stroke="none">
<path d="M1887 5106 c-60 -22 -116 -66 -144 -114 -36 -61 -43 -161 -16 -223
48 -106 114 -150 241 -157 l82 -5 0 -111 0 -112 -71 -21 -70 -21 -107 91 c-59
49 -121 96 -139 104 -77 31 -139 13 -319 -92 -200 -118 -217 -155 -174 -377
11 -57 20 -111 20 -122 0 -10 -38 -57 -85 -104 l-85 -86 -103 18 c-255 46
-287 35 -394 -139 -117 -188 -142 -269 -109 -348 7 -18 52 -79 100 -134 47
-56 86 -110 86 -119 0 -19 -48 -200 -59 -222 -3 -8 -66 -36 -139 -62 -145 -52
-191 -84 -214 -149 -18 -50 -18 -373 0 -423 17 -46 76 -100 133 -121 24 -9 84
-31 133 -49 l88 -33 23 -90 c13 -49 28 -102 34 -117 9 -25 4 -34 -81 -135
-101 -120 -118 -151 -118 -218 0 -52 49 -157 134 -289 102 -156 129 -165 361
-125 l121 21 88 -88 88 -88 -17 -100 c-34 -192 -32 -244 12 -296 34 -41 119
-98 246 -165 87 -46 112 -55 156 -55 68 0 96 16 215 118 l99 85 121 -30 121
-31 28 -73 c15 -41 39 -104 53 -141 32 -85 81 -131 153 -147 67 -14 295 -14
362 0 72 16 121 62 153 147 14 37 38 100 53 141 l28 73 121 31 121 30 99 -85
c119 -102 148 -118 214 -118 57 0 156 45 290 131 158 101 170 135 129 364
l-22 121 89 88 89 88 121 -21 c234 -41 269 -27 376 149 114 188 138 264 104
343 -7 18 -54 80 -104 140 -86 101 -91 109 -81 135 6 15 21 68 34 117 l23 90
88 33 c49 18 109 40 133 49 57 21 117 75 133 121 18 51 18 373 0 424 -22 62
-75 100 -206 147 -65 23 -125 45 -134 50 -14 8 -35 73 -64 197 l-12 51 89 104
c48 56 94 118 101 136 33 79 8 160 -109 348 -107 174 -139 185 -394 139 l-103
-18 -87 87 -86 88 21 123 c43 241 31 269 -161 385 -148 89 -210 114 -272 109
-62 -5 -81 -17 -213 -129 l-90 -77 -71 21 -71 21 0 113 0 113 63 0 c81 0 127
14 179 53 159 121 118 375 -72 442 -60 21 -1294 22 -1353 1z m843 -841 c3
-236 9 -437 14 -445 24 -41 61 -66 181 -125 253 -124 424 -272 584 -505 48
-70 81 -132 126 -234 52 -120 61 -167 11 -58 -84 184 -259 392 -353 420 -30 9
-223 12 -733 12 -510 0 -703 -3 -733 -12 -88 -27 -273 -242 -350 -408 -20 -44
-67 -169 -73 -195 -31 -132 -37 -185 -37 -320 -1 -168 9 -232 60 -385 81 -244
244 -460 458 -606 105 -72 142 -91 250 -132 347 -133 746 -97 1048 92 102 64
99 62 200 156 123 116 243 287 283 404 9 26 18 45 20 43 6 -6 -20 -76 -63
-171 -34 -77 -128 -236 -169 -286 -135 -166 -280 -292 -424 -370 -25 -14 -47
-28 -50 -32 -10 -12 -114 -46 -185 -60 -93 -18 -379 -17 -470 1 -404 80 -736
313 -938 658 -280 477 -243 1056 97 1513 126 170 369 354 559 425 59 22 128
82 153 132 17 35 19 73 24 428 l5 390 140 5 c168 6 195 17 195 81 0 18 6 20
83 17 l82 -3 5 -430z m-1004 1 l128 -108 45 5 c25 3 67 12 94 21 l47 15 0
-167 c0 -92 -4 -173 -8 -180 -5 -7 -62 -39 -128 -71 -204 -99 -313 -179 -469
-343 -249 -260 -396 -612 -412 -983 -32 -756 479 -1414 1223 -1572 115 -24
149 -27 319 -27 167 1 205 4 312 27 543 117 964 494 1141 1023 58 171 76 286
76 484 0 257 -48 469 -157 685 -121 243 -324 471 -540 609 -64 40 -249 136
-264 136 -5 0 -19 9 -31 20 -21 20 -22 29 -22 190 l0 169 48 -15 c26 -9 68
-18 93 -21 l46 -5 116 100 117 101 30 -15 c17 -9 46 -30 65 -48 43 -40 44 -63
15 -224 -28 -152 -23 -171 82 -279 90 -92 126 -113 192 -113 41 0 49 -4 88
-46 59 -64 72 -67 183 -45 70 13 99 15 110 7 7 -6 36 -53 64 -105 66 -122 67
-160 6 -230 -94 -107 -127 -152 -142 -189 -16 -42 -15 -45 16 -165 38 -144 60
-173 155 -208 33 -12 70 -28 81 -34 11 -7 39 -18 63 -25 69 -22 89 -47 97
-125 4 -37 5 -121 3 -186 -6 -139 -15 -159 -85 -184 -26 -9 -64 -25 -83 -35
-19 -10 -54 -23 -78 -30 -55 -14 -119 -71 -127 -113 -4 -18 -18 -71 -31 -119
-21 -74 -23 -93 -14 -127 9 -36 104 -168 151 -211 25 -23 39 -56 39 -90 0 -31
-72 -182 -108 -227 l-17 -21 -92 18 c-50 9 -103 15 -117 13 -14 -3 -46 -28
-71 -55 l-45 -50 -58 7 -57 6 -102 -105 c-129 -133 -133 -144 -103 -299 26
-134 27 -170 6 -202 -14 -21 -96 -85 -110 -85 -3 0 -58 45 -122 100 -135 114
-137 115 -255 75 -41 -14 -117 -35 -169 -46 -65 -14 -103 -28 -120 -44 -14
-12 -50 -30 -81 -39 -97 -27 -120 -56 -175 -215 l-28 -83 -60 6 c-32 3 -67 6
-76 6 -13 0 -31 38 -74 159 -32 88 -65 166 -74 174 -10 8 -62 25 -117 37 -54
12 -130 33 -169 46 -109 37 -120 35 -219 -50 -48 -41 -107 -91 -131 -111 l-44
-36 -71 36 c-82 41 -172 97 -189 117 -9 11 -5 50 19 176 23 128 27 167 18 183
-17 32 -267 279 -292 288 -14 6 -81 -2 -185 -21 -158 -29 -164 -30 -177 -12
-18 24 -132 224 -140 244 -3 9 16 39 47 76 162 187 168 196 168 225 0 16 -15
80 -34 142 -19 61 -39 139 -45 172 -6 33 -19 67 -29 77 -9 9 -82 40 -162 68
-80 29 -152 58 -160 66 -21 20 -19 290 1 308 14 12 175 73 256 97 62 18 79 42
102 145 10 50 31 125 45 168 43 126 42 128 -74 261 -20 22 -55 63 -78 92 l-43
52 27 53 c22 44 119 205 129 216 2 2 77 -10 168 -27 91 -17 173 -28 183 -24
29 11 290 276 296 301 4 13 -7 93 -23 179 -22 118 -26 159 -18 169 20 24 247
156 261 151 3 -1 64 -51 134 -111z m1402 -1122 c12 -4 22 -12 22 -18 0 -7 11
-23 25 -36 14 -13 25 -29 25 -36 0 -7 4 -14 8 -16 27 -11 136 -219 147 -282 4
-20 11 -36 15 -36 22 0 54 -266 46 -390 -5 -94 -29 -236 -46 -275 -5 -11 -16
-42 -26 -70 -32 -89 -118 -245 -135 -245 -5 0 -9 -6 -9 -14 0 -20 -217 -236
-242 -242 -21 -4 -22 -6 -3 -15 18 -8 17 -9 -5 -5 -14 3 -34 -2 -44 -10 -11
-8 -16 -14 -10 -15 5 0 -31 -14 -81 -31 -85 -30 -98 -31 -245 -32 -139 0 -166
3 -254 27 -123 34 -207 73 -312 143 -215 143 -361 346 -431 602 -23 85 -26
116 -26 247 0 130 3 163 26 247 43 161 141 334 259 456 l51 52 611 0 c336 0
621 -3 634 -6z m112 -8 l25 -14 -27 1 c-14 1 -24 5 -22 9 2 3 -2 9 -8 11 -7 3
-8 6 -3 6 6 0 21 -6 35 -13z m148 -177 c-6 -4 -18 -5 -25 -2 -10 4 -11 8 -3
13 11 7 4 40 -10 40 -4 0 -15 12 -25 28 -9 15 4 5 29 -23 29 -32 41 -52 34
-56z m-54 39 c7 -5 6 -8 -3 -8 -8 0 -23 -8 -33 -17 -18 -16 -18 -16 -12 0 3 9
10 17 15 17 5 0 9 10 10 23 0 15 2 17 6 7 3 -8 11 -18 17 -22z m80 -64 c3 -8
2 -12 -4 -9 -6 3 -10 10 -10 16 0 14 7 11 14 -7z m-14 -25 c0 -6 -4 -7 -10 -4
-5 3 -10 11 -10 16 0 6 5 7 10 4 6 -3 10 -11 10 -16z m64 -65 c3 -8 2 -12 -4
-9 -6 3 -10 1 -10 -6 0 -7 -2 -10 -5 -7 -5 5 4 38 10 38 2 0 6 -7 9 -16z m236
-59 c0 -5 -5 -3 -10 5 -5 8 -10 20 -10 25 0 6 5 3 10 -5 5 -8 10 -19 10 -25z
m-230 4 c0 -6 -4 -7 -10 -4 -5 3 -10 11 -10 16 0 6 5 7 10 4 6 -3 10 -11 10
-16z m-6 -55 c3 -8 2 -12 -4 -9 -6 3 -10 10 -10 16 0 14 7 11 14 -7z m76 -161
c-11 -17 -11 -17 -6 0 3 10 7 26 7 35 1 15 2 15 6 0 2 -10 -1 -25 -7 -35z m17
-160 c-3 -10 -5 -4 -5 12 0 17 2 24 5 18 2 -7 2 -21 0 -30z m10 -85 c-3 -7 -5
-2 -5 12 0 14 2 19 5 13 2 -7 2 -19 0 -25z m-20 0 c-3 -8 -6 -5 -6 6 -1 11 2
17 5 13 3 -3 4 -12 1 -19z m20 -60 c-3 -7 -5 -2 -5 12 0 14 2 19 5 13 2 -7 2
-19 0 -25z m-40 -80 c-3 -8 -6 -5 -6 6 -1 11 2 17 5 13 3 -3 4 -12 1 -19z m10
-70 c-3 -8 -6 -5 -6 6 -1 11 2 17 5 13 3 -3 4 -12 1 -19z m-80 -100 c-3 -8 -6
-5 -6 6 -1 11 2 17 5 13 3 -3 4 -12 1 -19z m40 -10 c-3 -8 -6 -5 -6 6 -1 11 2
17 5 13 3 -3 4 -12 1 -19z m-37 -36 c1 -15 2 -15 15 2 8 11 15 15 15 10 0 -6
-6 -18 -13 -29 -13 -17 -15 -16 -25 14 -6 18 -7 29 -2 26 6 -4 10 -14 10 -23z
m0 -51 c0 -5 -9 -19 -20 -32 l-20 -24 17 32 c19 34 23 39 23 24z m-47 -31 c-8
-17 -12 -38 -9 -46 3 -9 2 -12 -4 -9 -16 10 2 85 20 85 5 0 2 -14 -7 -30z
m-31 -44 c2 -19 0 -32 -4 -30 -8 5 -12 64 -4 64 2 0 6 -15 8 -34z m-2 -56 c0
-5 -2 -10 -4 -10 -3 0 -8 5 -11 10 -3 6 -1 10 4 10 6 0 11 -4 11 -10z m-72
-38 c15 12 16 11 3 -4 -14 -19 -32 -15 -30 5 0 8 2 8 6 -1 4 -10 8 -10 21 0z
m-92 -92 c0 -12 -4 -16 -9 -11 -5 5 -6 14 -3 20 10 15 12 14 12 -9z m29 10
c-3 -5 -1 -10 5 -10 6 0 8 -5 4 -11 -4 -8 -9 -7 -15 2 -7 12 -3 29 7 29 3 0 2
-4 -1 -10z m-71 -79 c3 -5 -1 -11 -9 -14 -9 -4 -12 -1 -8 9 6 16 10 17 17 5z
m-94 -41 c0 -5 -5 -10 -11 -10 -5 0 -7 5 -4 10 3 6 8 10 11 10 2 0 4 -4 4 -10z
m50 5 c0 -2 -10 -9 -22 -15 -22 -11 -22 -10 -4 4 21 17 26 19 26 11z m-84 -34
c-4 -5 -1 -11 6 -13 7 -3 5 -7 -6 -11 -11 -4 -15 -3 -10 4 4 8 -1 9 -17 5 -24
-7 -24 -7 1 8 30 18 33 19 26 7z"/>
<path d="M1993 2899 c-60 -11 -95 -32 -140 -83 -95 -108 -82 -275 27 -369 51
-43 92 -57 176 -57 113 0 213 76 241 184 17 64 16 91 -2 152 -36 122 -169 199
-302 173z m108 -198 c38 -39 38 -74 -1 -113 -26 -25 -36 -29 -63 -24 -40 8
-67 39 -67 78 0 81 75 115 131 59z"/>
<path d="M2964 2797 c-101 -49 -148 -124 -148 -237 0 -114 47 -189 148 -236
123 -57 279 -3 342 118 21 41 29 141 15 194 -16 59 -72 128 -127 154 -71 35
-166 37 -230 7z m163 -179 c50 -47 16 -138 -52 -138 -41 0 -85 42 -85 80 0 38
44 80 83 80 18 0 41 -9 54 -22z"/>
<path d="M2495 2704 c-55 -59 -16 -144 65 -144 31 0 47 6 65 26 54 58 15 144
-65 144 -31 0 -47 -6 -65 -26z"/>
<path d="M1812 2197 c-29 -30 -30 -95 -2 -124 67 -72 181 -3 150 91 -14 43
-35 56 -88 56 -27 0 -45 -7 -60 -23z"/>
<path d="M2325 2131 c-78 -19 -136 -69 -173 -150 -21 -45 -24 -64 -20 -120 11
-147 111 -240 258 -241 122 0 218 71 247 183 17 66 16 92 -3 158 -36 123 -178
201 -309 170z m119 -196 c54 -50 20 -135 -54 -135 -50 0 -80 29 -80 80 0 72
80 105 134 55z"/>
<path d="M2926 2029 c-20 -16 -26 -29 -26 -60 0 -54 13 -75 56 -89 46 -15 89
1 110 42 44 85 -63 167 -140 107z"/>
</g>
</svg>
